<?xml version="1.0" standalone="no"?><!DOCTYPE svg PUBLIC "-//W3C//DTD SVG 1.1//EN" "http://www.w3.org/Graphics/SVG/1.1/DTD/svg11.dtd"><svg t="1585816020015" class="icon" viewBox="0 0 1024 1024" version="1.1" xmlns="http://www.w3.org/2000/svg" p-id="2641" xmlns:xlink="http://www.w3.org/1999/xlink" width="200" height="200"><defs><style type="text/css"></style></defs><path d="M214.34 446.86h95.26v349.56h-95.26zM381.02 446.86h95.26v349.56h-95.26zM547.72 446.86h95.26v349.56h-95.26zM714.8 446.86h95.34v349.56H714.8z" fill="#FCC419" p-id="2642"></path><path d="M214.42 782.8h95.12a23.88 23.88 0 0 1 23.88 23.88v24H190.52v-24a23.88 23.88 0 0 1 23.9-23.88zM381.1 782.8h95.12A23.88 23.88 0 0 1 500 806.68v24h-142.78v-24a23.88 23.88 0 0 1 23.88-23.88zM547.78 782.8h95.12a23.88 23.88 0 0 1 23.88 23.88v24H524v-24a23.88 23.88 0 0 1 23.78-23.88zM714.86 782.8H810a23.9 23.9 0 0 1 24 23.9v24h-143v-24a23.9 23.9 0 0 1 23.86-23.9z" fill="#FAB005" p-id="2643"></path><path d="M168.94 828.42h696.38a32.82 32.82 0 0 1 32.82 32.82v29.48a3.28 3.28 0 0 1-3.28 3.28H139.4a3.28 3.28 0 0 1-3.28-3.28v-29.48a32.82 32.82 0 0 1 32.82-32.82z" fill="#FFD43B" p-id="2644"></path><path d="M848.84 461.32H175.16a24.34 24.34 0 0 1-24.34-24.34v-24.86h722.34v24.86a24.34 24.34 0 0 1-24.32 24.34z" fill="#FAB005" p-id="2645"></path><path d="M499.28 121.86L129.14 367.02c-20.18 13.36-11.14 46 12.72 46h740.28c23.86 0 32.9-32.72 12.72-46L524.72 121.86a22.88 22.88 0 0 0-25.44 0z" fill="#FFD43B" p-id="2646"></path><path d="M440.56 289.66a71.86 71.44 90 1 0 142.88 0 71.86 71.44 90 1 0-142.88 0Z" fill="#FAB005" p-id="2647"></path><path d="M790 798m-146 0a146 146 0 1 0 292 0 146 146 0 1 0-292 0Z" fill="#20C997" p-id="2648"></path><path d="M734.28 865.18a11.14 11.14 0 0 1-7.88-19.02l111.46-111.46a11.14 11.14 0 0 1 15.76 15.76L742.16 862a11.1 11.1 0 0 1-7.88 3.18z" fill="#FFFFFF" p-id="2649"></path><path d="M845.72 834.7a11.14 11.14 0 0 1-11.14-11.14v-70.46h-70.46a11.14 11.14 0 0 1 0-22.3h81.6a11.14 11.14 0 0 1 11.14 11.14v81.6a11.14 11.14 0 0 1-11.14 11.16z" fill="#FFFFFF" p-id="2650"></path></svg>