<?xml version="1.0" standalone="no"?><!DOCTYPE svg PUBLIC "-//W3C//DTD SVG 1.1//EN" "http://www.w3.org/Graphics/SVG/1.1/DTD/svg11.dtd"><svg t="1585902217696" class="icon" viewBox="0 0 1024 1024" version="1.1" xmlns="http://www.w3.org/2000/svg" p-id="5595" xmlns:xlink="http://www.w3.org/1999/xlink" width="200" height="200"><defs><style type="text/css"></style></defs><path d="M70.353836 491.264747l50.373271 25.90295c0 0 22.916942 13.122879 35.009352-11.394515L280.440645 244.961084c0 0 11.802814-22.278399-7.484462-32.758078l-54.985312-26.831089c0 0-17.039072-9.497305-28.152177 10.536984-0.346901 8.060583-127.98593 265.762853-127.98593 265.762853S53.714877 482.799958 70.353836 491.264747L70.353836 491.264747zM892.680651 517.742794l51.41602-23.658839c0 0 24.579815-9.957793 12.720719-34.657334L828.540841 200.400193c0 0-10.247388-22.968108-30.395264-14.33345l-54.986335 26.65508c0 0-18.018376 7.541767-9.152451 28.617781 6.161327 5.291516 130.175805 264.838807 130.175805 264.838807S875.752096 525.571087 892.680651 517.742794L892.680651 517.742794zM192.352401 516.882194l16.981766-35.979446 59.589167 75.237565c0 0 38.750559-8.868995 52.336996 15.370059 0 0 12.782118 14.740726 7.194866 42.550095 0 0 8.002254 5.811356 8.635681 9.44 0 0 26.65815-6.447852 42.72201 12.492522 0 0 14.737656 11.746532 13.06762 34.661428 0 0 10.595312 4.545526 12.782118 10.82351 0 0 26.197662-6.505158 38.918381 8.806573 0 0 15.545044 14.512529 14.394848 31.494295l24.355711 17.789155c0 0 22.681582 1.902326 26.310226 19.635199l21.816888 16.121166c0 0 34.890648 13.818727 36.85028-21.070898l-81.928964-62.413492c0 0-9.614985-25.155936 20.437471-21.242813l122.117268 86.015026c0 0 19.978007 8.521071 32.066323-10.419304 0 0 11.745509-16.353456-4.951779-34.086329l-129.886209-93.847411c0 0-11.456936-26.253944 18.021445-24.238031l154.12424 109.045555c0 0 21.87931 8.691963 31.091112-7.600095 0 0 12.492522-16.292058 0-33.107025L559.269072 538.231431c0 0-10.247388-29.751604 21.589714-22.043039l175.429475 124.929314c0 0 26.541493 8.345062 38.344307-13.300934 0 0 15.026228-23.258727-5.123694-42.432415L541.365306 368.918257c0 0-46.11734-22.050202-73.636091 24.067138 0 0-4.836145 75.135234-88.320535 88.836281 0 0-56.94085-4.374634-43.697221-41.738613 0 0 16.696264-22.1116 15.255449-68.687382 0 0 1.901303-33.390481 25.046443-61.894675l-89.357144 0 19.635199-40.699957 134.951575 0c0 0 55.441707-31.43699 97.241718-28.500101 0 0 54.523801 2.933819 69.145823 11.283997 0 0 72.196299 23.087834 104.556311 17.675568l120.791064 250.326279-19.174712 43.748387c0 0 35.352159 36.33044 9.271154 80.374562-7.254218 14.793938-25.907043 29.074176-56.365752 30.453592 0 0 4.66423 29.710672-16.696264 46.464241 0 0-15.71696 21.532409-53.772694 15.60235 0 0 2.186805 26.253944-23.031553 43.697221 0 0-29.997198 25.792433-76.342736-5.640464 0 0-7.369851 29.534663-44.39 35.579333 0 0-27.000957 4.203742-42.715871-10.994402 0 0-28.27088 53.255924-68.515467 23.258727 0 0-25.502837-21.128203-7.599072-51.011814 0 0-34.314527 54.235229-75.076906 13.472849 0 0-22.626323-16.986883-1.727341-52.566216 0 0-32.354895 36.849256-67.995627 3.457752 0 0-24.295336-19.863397-4.89345-56.82624 0 0-33.101909 39.206954-71.677483 1.839905 0 0-16.178471-14.907525-6.853082-48.071855l37.310767-51.010791L192.352401 516.882194 192.352401 516.882194zM192.352401 516.882194" p-id="5596"></path></svg>