<?xml version="1.0" standalone="no"?><!DOCTYPE svg PUBLIC "-//W3C//DTD SVG 1.1//EN" "http://www.w3.org/Graphics/SVG/1.1/DTD/svg11.dtd"><svg t="1586746032056" class="icon" viewBox="0 0 1024 1024" version="1.1" xmlns="http://www.w3.org/2000/svg" p-id="2257" xmlns:xlink="http://www.w3.org/1999/xlink" width="200" height="200"><defs><style type="text/css"></style></defs><path d="M300.5 237.5h575.1c11.5 0 19.2-9.1 19.2-22.8 0-13.7-7.7-22.8-19.2-22.8H300.5c-11.5 0-19.2 9.1-19.2 22.8 0.1 13.7 7.7 22.8 19.2 22.8z m-115 546.7h-38.3c-11.5 0-19.2 9.1-19.2 22.8 0 13.7 7.7 22.8 19.2 22.8h38.3c11.5 0 19.2-9.1 19.2-22.8 0-13.7-7.7-22.8-19.2-22.8z m0-296.1h-38.3c-11.5 0-19.2 9.1-19.2 22.8 0 13.7 7.7 22.8 19.2 22.8h38.3c11.5 0 19.2-9.1 19.2-22.8 0-13.7-7.7-22.8-19.2-22.8z m690.2 0H300.5c-11.5 0-19.2 9.1-19.2 22.8 0 13.7 7.7 22.8 19.2 22.8h575.1c11.5 0 19.2-9.1 19.2-22.8 0.1-13.7-7.6-22.8-19.1-22.8zM185.5 192h-38.3c-11.5 0-19.2 9.1-19.2 22.8 0 13.7 7.7 22.8 19.2 22.8h38.3c11.5 0 19.2-9.1 19.2-22.8 0-13.7-7.7-22.8-19.2-22.8z m690.2 592.2H300.5c-11.5 0-19.2 9.1-19.2 22.8 0 13.7 7.7 22.8 19.2 22.8h575.1c11.5 0 19.2-9.1 19.2-22.8 0.1-13.7-7.6-22.8-19.1-22.8z m0 0" p-id="2258"></path></svg>