<?xml version="1.0" standalone="no"?><!DOCTYPE svg PUBLIC "-//W3C//DTD SVG 1.1//EN" "http://www.w3.org/Graphics/SVG/1.1/DTD/svg11.dtd"><svg t="1585881410630" class="icon" viewBox="0 0 1024 1024" version="1.1" xmlns="http://www.w3.org/2000/svg" p-id="2303" xmlns:xlink="http://www.w3.org/1999/xlink" width="200" height="200"><defs><style type="text/css"></style></defs><path d="M594.681094 143.182027c0-43.946908-37.240159-79.737042-83.185584-79.737042-45.848211 0-83.190701 35.70213-83.190701 79.737042 0 4.487198 0.390903 8.891508 1.13587 13.178137-114.871237 38.376029-209.111598 156.23532-209.111598 295.677163l0 109.780289c0 0 0 158.101831-40.517809 159.483294-24.159236 0-42.667775 17.850553-42.667775 39.871079 0 22.166859 18.62008 39.865963 41.585117 39.865963l665.531745 0c23.078625 0 41.586141-17.850553 41.586141-39.865963 0-22.177092-18.62008-39.871079-41.586141-39.871079-41.59842 0-41.59842-158.37096-41.59842-158.37096L802.661939 452.051653c0-139.618874-88.118943-257.532401-209.088062-295.791773C594.303494 152.003949 594.681094 147.634432 594.681094 143.182027L594.681094 143.182027zM636.276445 840.838424c-0.122797 66.118883-55.464219 119.6818-124.780935 119.6818-68.842924 0-124.662231-53.336766-124.785028-119.6818L636.276445 840.838424 636.276445 840.838424zM636.276445 840.838424" p-id="2304"></path></svg>